<svg width="20" height="20" viewBox="0 0 20 20" fill="none" xmlns="http://www.w3.org/2000/svg">
<path d="M10 0C4.45455 0 0 4.45455 0 10C0 15.5455 4.45455 20 10 20C15.5455 20 20 15.5455 20 10C20 4.45455 15.5455 0 10 0ZM7.63636 11.0909L7 11.7273C6.81818 11.9091 6.54545 11.9091 6.36364 11.7273L5.22727 10.5909C4.5 9.86364 4.09091 8.90909 4.09091 7.86364C4.09091 5.77273 5.81818 4.04545 7.90909 4.04545C8.90909 4.04545 9.90909 4.45455 10.6364 5.18182L11.7727 6.31818C11.9545 6.5 11.9545 6.77273 11.7727 6.95455L11.1364 7.59091C10.9545 7.77273 10.6818 7.77273 10.5 7.59091L9.36364 6.45455C9 6.09091 8.5 5.86364 7.95455 5.86364C6.86364 5.86364 5.95455 6.77273 5.95455 7.86364C5.95455 8.40909 6.18182 8.90909 6.54545 9.27273L7.68182 10.4091C7.77273 10.6364 7.77273 10.9091 7.63636 11.0909ZM7.86364 8.5L8.5 7.86364C8.68182 7.68182 8.95455 7.68182 9.13636 7.86364L12.1364 10.8636C12.3182 11.0455 12.3182 11.3182 12.1364 11.5L11.5 12.1364C11.3182 12.3182 11.0455 12.3182 10.8636 12.1364L7.86364 9.13636C7.68182 8.95455 7.68182 8.68182 7.86364 8.5ZM12.0909 15.9091C11.0909 15.9091 10.0909 15.5 9.36364 14.7727L8.22727 13.6364C8.04545 13.4545 8.04545 13.1818 8.22727 13L8.86364 12.3636C9.04545 12.1818 9.31818 12.1818 9.5 12.3636L10.6364 13.5C11 13.8636 11.5 14.0909 12.0455 14.0909C13.1364 14.0909 14.0455 13.1818 14.0455 12.0909C14.0455 11.5455 13.8182 11.0455 13.4545 10.6818L12.3182 9.54545C12.1364 9.36364 12.1364 9.09091 12.3182 8.90909L12.9545 8.27273C13.1364 8.09091 13.4091 8.09091 13.5909 8.27273L14.7273 9.40909C15.4545 10.1364 15.8636 11.0909 15.8636 12.1364C15.9091 14.1818 14.1818 15.9091 12.0909 15.9091Z" fill="#5C2D91"/>
</svg>
