<svg width="16" height="16" viewBox="0 0 16 16" fill="none" xmlns="http://www.w3.org/2000/svg">
<path d="M8 0C3.58172 0 0 3.58172 0 8C0 12.4183 3.58172 16 8 16C12.4183 16 16 12.4183 16 8C16 3.58172 12.4183 0 8 0ZM8 2C11.3137 2 14 4.68629 14 8C14 11.3137 11.3137 14 8 14C4.68629 14 2 11.3137 2 8C2 4.68629 4.68629 2 8 2ZM9.00361 5.00165H7.00295V9.00165H9.00361V5.00165ZM8.00033 10.0017C7.44786 10.0017 7 10.4494 7 11.0017C7 11.5539 7.44786 12.0017 8.00033 12.0017C8.55279 12.0017 9.00066 11.5539 9.00066 11.0017C9.00066 10.4494 8.55279 10.0017 8.00033 10.0017Z" fill="#E63946"/>
</svg>
