<svg width="203" height="64" viewBox="0 0 203 64" fill="none" xmlns="http://www.w3.org/2000/svg">
<path d="M107.623 47.3338C107.701 47.3338 107.72 47.2368 107.759 47.1593C108.186 46.0535 108.399 45.4716 108.399 45.4328C108.399 45.3164 108.341 45.2776 108.205 45.2776H99.34C99.146 45.2776 99.0296 45.3552 98.9908 45.5104C98.5447 46.6161 98.3313 47.1786 98.3313 47.2174C98.3313 47.2756 98.3507 47.3144 98.3701 47.3338H107.623Z" fill="#23419B"/>
<path d="M111.29 40.2146H100.776H99.1267H98.0404C95.9648 40.2146 93.6563 41.8053 92.8998 43.7451L90.9211 48.8858C90.1646 50.8256 91.2509 52.4163 93.3459 52.4163H94.4129H96.0811H106.576C106.77 52.4163 106.906 52.3387 106.964 52.1835L107.604 50.554C107.604 50.5152 107.604 50.4958 107.623 50.4765C107.623 50.3601 107.546 50.3213 107.41 50.3213H97.2257C96.5079 50.3213 96.1587 49.9721 96.1587 49.2931C96.1587 48.8082 96.3527 48.071 96.7601 47.0623L97.2063 45.8596C98.215 42.9886 98.9909 42.3484 99.5923 42.3484H100.31H110.494C110.708 42.3484 110.805 42.2708 110.863 42.1351C110.863 42.1351 111.464 40.5832 111.484 40.4862C111.522 40.4086 111.503 40.3698 111.503 40.3504C111.464 40.2534 111.406 40.2146 111.29 40.2146Z" fill="#23419B"/>
<path d="M153.268 40.2141H136.081C135.887 40.2141 135.77 40.2917 135.712 40.4469C135.285 41.572 135.072 42.1346 135.072 42.154C135.072 42.2704 135.15 42.3092 135.285 42.3092H141.241C140.581 44.0162 137.419 52.2412 137.419 52.2412C137.419 52.3382 137.477 52.3964 137.613 52.3964H142.23C142.405 52.3964 142.521 52.3188 142.579 52.1636L146.401 42.3092H152.473C152.667 42.3092 152.783 42.2316 152.841 42.0958C153.268 40.9901 153.481 40.4081 153.481 40.3693C153.481 40.2723 153.404 40.2141 153.268 40.2141Z" fill="#23419B"/>
<path d="M132.376 40.2141H119.398H118.118C116.935 40.2141 115.169 40.7573 114.393 42.7747L114.083 43.5701L113.811 44.3072C113.171 45.9561 113.967 47.2946 115.577 47.3334H123.685C124.481 47.3528 124.694 47.7602 124.461 48.3615L124.131 49.1957C123.802 50.0298 123.2 50.282 121.668 50.282H120.077H111.794C111.581 50.282 111.484 50.3596 111.425 50.4954L110.766 52.183C110.708 52.3188 110.824 52.4158 110.96 52.4158H118.118H120.834H124.927C125.897 52.4158 126.925 52.1248 127.837 51.3683C128.225 51.0385 128.671 50.6505 129.001 49.797C129.098 49.5642 129.466 48.5749 129.485 48.5361C129.718 47.9153 129.912 47.3916 129.776 46.829C129.679 46.4605 129.524 46.1695 129.253 45.8785C128.884 45.5099 128.244 45.2383 127.643 45.2383C127.352 45.2383 126.576 45.2383 125.722 45.2383C125.722 45.2383 119.592 45.2383 119.418 45.2383C118.739 45.2383 118.719 44.7922 118.894 44.3072C119.088 43.8222 119.282 43.2791 119.282 43.2791C119.495 42.7359 119.65 42.3286 120.368 42.3286C121.241 42.3286 131.542 42.3286 131.542 42.3286C131.755 42.3286 131.852 42.251 131.91 42.1152L132.55 40.4663C132.57 40.4469 132.57 40.4275 132.57 40.3887C132.57 40.2723 132.512 40.2141 132.376 40.2141Z" fill="#23419B"/>
<path d="M161.803 40.2141H161.726H157.885H156.973C156.799 40.2141 156.682 40.2917 156.624 40.4469C155.868 42.3868 152.124 52.1442 152.085 52.2412C152.046 52.3382 152.143 52.3964 152.279 52.3964H152.57H157.09C157.284 52.3964 157.4 52.3188 157.458 52.1636C157.71 51.5235 161.706 41.1452 161.978 40.4081C161.997 40.3887 161.997 40.3887 161.997 40.3887C162.017 40.3499 161.997 40.3305 161.997 40.3111C161.978 40.2529 161.9 40.2141 161.803 40.2141Z" fill="#23419B"/>
<path d="M191.58 40.2141C191.58 40.2141 186.925 40.2141 186.886 40.2141C186.731 40.2141 186.673 40.3111 186.614 40.4663C186.42 40.9901 185.392 43.6865 184.345 46.4023L184.054 47.1588C183.026 49.8164 181.493 50.2626 178.855 50.282C178.37 50.9803 177.691 51.6981 176.721 52.3188C177.012 52.377 177.342 52.4158 177.652 52.4158H178.855H179.437H180.775C186.498 52.4158 188.166 49.7388 188.981 47.605C188.981 47.5856 191.716 40.4857 191.755 40.4081C191.813 40.2723 191.716 40.2141 191.58 40.2141Z" fill="#23419B"/>
<path d="M181.183 40.2144C181.183 40.2144 176.527 40.2144 176.488 40.2144C176.333 40.2144 176.275 40.3113 176.217 40.4665C176.023 40.9903 174.995 43.6867 173.947 46.4025L173.656 47.159C172.628 49.8361 171.677 50.3016 168.787 50.321C168.089 50.321 167.739 49.9718 167.739 49.2929C167.739 48.9049 167.933 48.3424 168.205 47.6246C169.485 44.3075 170.979 40.4083 170.979 40.3889C170.979 40.2726 170.921 40.2338 170.785 40.2338H170.707H167.041H166.149C165.974 40.2338 165.858 40.3113 165.8 40.4665C165.392 41.5335 164.034 45.0252 162.909 47.935C162.909 47.9544 162.909 47.9544 162.89 47.9738L162.521 48.9049C161.784 50.8448 162.851 52.4161 164.927 52.4161H170.223H170.397C176.12 52.4161 177.788 49.7391 178.603 47.6052C178.603 47.5858 181.338 40.4859 181.377 40.4083C181.396 40.2726 181.299 40.2144 181.183 40.2144Z" fill="#23419B"/>
<path d="M102.657 18.7607C102.735 18.7607 102.754 18.6637 102.793 18.5861C103.22 17.4804 103.433 16.9179 103.433 16.8791C103.433 16.7821 103.375 16.7239 103.259 16.7239H94.665C94.471 16.7239 94.3546 16.8015 94.3158 16.9567C93.8696 18.043 93.6562 18.6249 93.6562 18.6443C93.6562 18.7025 93.6757 18.7413 93.695 18.7607H102.657Z" fill="#23419B"/>
<path d="M110.513 16.222L110.921 15.1939C111.658 13.2734 110.591 11.7021 108.515 11.7021H107.468H105.78H95.5571C95.3632 11.7021 95.2274 11.7797 95.1692 11.9349L94.5484 13.5644C94.5484 13.6032 94.5484 13.6226 94.529 13.642C94.529 13.739 94.6066 13.7972 94.7424 13.7972H104.616C105.315 13.7972 105.683 14.1464 105.683 14.8253C105.683 15.3103 105.489 16.0474 105.082 17.0562L104.636 18.2589C103.646 21.1105 102.87 21.7506 102.25 21.7506H101.551H91.6774C91.464 21.7506 91.3671 21.8282 91.3089 21.964L90.6881 23.6129C90.6687 23.6323 90.6687 23.6517 90.6687 23.6905C90.6687 23.7875 90.7269 23.8457 90.8627 23.8457H101.105H102.793H103.84C105.897 23.8457 108.205 22.2744 108.942 20.3539L109.544 18.7826C109.544 18.7632 109.544 18.7632 109.563 18.7438C109.621 18.608 109.699 18.3947 109.796 18.1425L110.416 16.5324C110.436 16.416 110.455 16.319 110.513 16.222Z" fill="#23419B"/>
<path d="M132.065 11.6797H121.804H120.155H119.068C117.012 11.6797 114.704 13.251 113.966 15.1714L111.988 20.2733C111.251 22.1937 112.318 23.765 114.393 23.765H115.46H117.128H127.39C127.584 23.765 127.72 23.6874 127.778 23.5322L128.399 21.9027C128.399 21.8639 128.399 21.8445 128.418 21.8251C128.418 21.7282 128.341 21.67 128.205 21.67H118.273C117.575 21.67 117.206 21.3208 117.206 20.6418C117.206 20.1569 117.4 19.4197 117.807 18.411L118.254 17.2083C119.243 14.3567 120.019 13.7165 120.64 13.7165H121.338H131.27C131.483 13.7165 131.58 13.6389 131.639 13.5032L132.259 11.8543C132.279 11.8349 132.279 11.8155 132.279 11.7767C132.259 11.7379 132.182 11.6797 132.065 11.6797Z" fill="#23419B"/>
<path d="M151.716 11.6797H135.305C135.111 11.6797 134.995 11.7573 134.937 11.9125C134.51 13.0376 134.296 13.6001 134.296 13.6001C134.296 13.6971 134.374 13.7553 134.51 13.7553H140.097C139.437 15.4624 136.294 23.6098 136.294 23.6292C136.294 23.7262 136.353 23.7844 136.488 23.7844H141.066C141.241 23.7844 141.357 23.7068 141.416 23.5516L145.198 13.7553H150.902C151.076 13.7553 151.212 13.6777 151.27 13.542C151.697 12.4362 151.91 11.8737 151.91 11.8349C151.91 11.7379 151.833 11.6797 151.716 11.6797Z" fill="#23419B"/>
<path d="M171.309 11.6797H165.974C165.896 11.6797 165.819 11.6991 165.78 11.7379C165.722 11.7767 156.624 19.6525 156.624 19.6525C156.624 19.6525 159.398 12.475 159.495 12.2422C159.592 11.9707 159.65 11.8349 159.65 11.8349C159.65 11.7379 159.592 11.6797 159.475 11.6797H154.936C154.762 11.6797 154.645 11.7573 154.587 11.9125C153.85 13.8329 150.067 23.6098 150.067 23.6292C150.067 23.7262 150.125 23.7844 150.261 23.7844H155.266C155.46 23.7844 155.557 23.7262 155.77 23.5516L164.926 15.6176L161.881 23.6292C161.881 23.7262 161.939 23.7844 162.055 23.7844H166.634C166.808 23.7844 166.944 23.7068 167.002 23.5516C167.254 22.8921 171.503 11.8543 171.503 11.8349C171.503 11.7379 171.444 11.6797 171.309 11.6797Z" fill="#23419B"/>
<path d="M190.979 15.8704C191.541 15.1914 191.813 14.4737 191.813 13.7171C191.813 13.0188 191.561 12.495 191.037 12.1071C190.591 11.8161 190.048 11.6609 189.388 11.6609H188.476H174.917C174.703 11.6609 174.587 11.7385 174.548 11.8937C173.578 14.3961 170.028 23.591 170.028 23.6104C170.028 23.7074 170.087 23.7656 170.222 23.7656H174.762C174.762 23.7656 174.917 23.7656 175.014 23.688C175.111 23.6104 175.15 23.494 175.15 23.494L175.848 21.69L178.893 13.7365H185.993C186.653 13.7365 186.827 14.2409 186.595 14.8423L186.517 15.0168C186.284 15.6376 185.547 16.1226 184.888 16.1226H179.922C179.728 16.1226 179.592 16.2002 179.534 16.3553L178.913 17.9654C178.913 17.9848 178.913 18.0042 178.893 18.043C178.893 18.14 178.971 18.1788 179.107 18.1788H185.12C185.78 18.1788 186.129 18.6832 185.877 19.2845L185.392 20.5454C185.159 21.1662 184.5 21.6512 182.967 21.6512H181.202H177.749C177.555 21.6512 177.419 21.7288 177.361 21.8839L176.721 23.5328C176.721 23.5522 176.721 23.5716 176.701 23.6104C176.701 23.7268 176.779 23.7462 176.915 23.7462H176.992H185.838C187.041 23.7462 188.224 23.4358 189.136 22.6793C190.028 21.9615 190.261 21.2826 190.746 19.8665C190.94 19.3233 191.018 18.7414 190.882 18.1594C190.785 17.7908 190.63 17.4999 190.358 17.2089C190.203 17.0537 190.048 16.9179 189.873 16.8209C190.28 16.5881 190.649 16.2584 190.979 15.8704Z" fill="#23419B"/>
<path d="M195.887 31.2537H86.5371V32.7667H195.887V31.2537Z" fill="#5C2D91"/>
<path d="M22.619 18.722C24.9662 13.2516 31.3289 2.03919 44.6364 0.700688C44.6364 0.700688 25.1602 -0.793003 15.5967 18.7026C18.0797 19.2263 20.4463 19.1681 22.619 18.722Z" fill="#5C2D91"/>
<path d="M65.4898 45.3554C63.1426 50.8258 56.7798 62.0382 43.4724 63.3767C43.4724 63.3767 62.9486 64.8704 72.5121 45.3748C70.0097 44.851 67.643 44.9286 65.4898 45.3554Z" fill="#5C2D91"/>
<path d="M75.5769 31.8735C75.5963 34.5117 75.2859 37.7124 73.9086 41.9413C67.9726 38.7987 61.7651 36.4321 55.7709 34.9772C53.6371 34.4535 47.6817 33.1538 42.8903 33.309C37.1095 33.4835 32.4926 35.2488 30.7662 36.0248C22.1726 39.8657 16.644 47.3729 16.644 47.3729C16.644 47.3729 12.4927 40.3118 12.5315 32.242C12.5121 29.6038 13.0747 24.793 14.1804 22.1742C24.9078 27.9743 35.8098 30.438 43.2394 30.8065C49.544 31.1169 55.286 29.0413 57.3422 28.1101C65.1986 24.599 70.4557 18.0811 71.4644 16.762C72.2791 18.1781 75.6157 24.599 75.5769 31.8735Z" fill="#5C2D91"/>
<path d="M54.0056 40.1377C43.4527 41.8836 37.7302 48.4209 35.5381 50.6711C35.5381 50.6711 30.9988 55.2492 28.8844 57.5188C26.77 59.7885 23.0842 63.1444 18.448 63.7652C25.897 64.0756 35.4605 65.0843 42.3082 58.1202C44.2287 56.1609 47.4294 52.7856 49.2723 50.9427C52.8029 47.3734 60.8533 40.7003 72.9968 44.289C72.9968 44.289 73.3072 43.5713 73.4623 43.1445C73.4429 43.1639 65.121 38.2948 54.0056 40.1377ZM34.0832 23.8623C44.6361 22.1164 50.3586 15.5791 52.5507 13.3289C52.5507 13.3289 57.0899 8.7508 59.2044 6.48116C61.3188 4.21153 65.0046 0.855575 69.6408 0.23482C62.1918 -0.0755572 52.6283 -1.08428 45.7806 5.87981C43.8601 7.83906 40.6593 11.2144 38.8165 13.0573C35.2859 16.6266 27.1773 23.2803 15.0532 19.6916C15.0532 19.6916 14.7428 20.4481 14.5876 20.8361C14.6264 20.8361 22.9872 25.7052 34.0832 23.8623Z" fill="#0073BE"/>
<path d="M23.5305 44.0786C20.2909 47.2794 11.7555 56.1057 11.7555 56.1057C11.7555 56.1057 5.23762 63.7294 0 63.7294C6.45973 64.195 17.1289 64.4665 22.5217 59.1513C27.9146 53.8361 34.4131 47.2988 34.4131 47.2988C34.4131 47.2988 42.5799 38.1427 57.5944 37.7935C53.1133 36.4356 35.9456 31.8187 23.5305 44.0786ZM65.5866 4.85469C60.1938 10.1699 53.6953 16.7072 53.6953 16.7072C53.6953 16.7072 45.5285 25.8634 30.514 26.2125C34.995 27.5898 52.1628 32.2067 64.5973 19.9274C67.8368 16.7266 76.3722 7.90027 76.3722 7.90027C76.3722 7.90027 82.8901 0.276625 88.1277 0.276625C81.6292 -0.188941 70.9794 -0.460521 65.5866 4.85469Z" fill="#23419B"/>
<path d="M197.264 15.4435H196.721V12.6113H195.751V12.1458H198.234V12.6113H197.264V15.4435Z" fill="#23419B"/>
<path d="M200.174 15.4435L199.223 12.6889H199.204C199.223 13.0963 199.243 13.4843 199.243 13.8334V15.4435H198.758V12.1458H199.514L200.426 14.7646H200.446L201.396 12.1458H202.153V15.4435H201.629V13.814C201.629 13.6588 201.629 13.4455 201.648 13.1739C201.648 12.9023 201.668 12.7471 201.668 12.6889H201.648L200.659 15.4435H200.174Z" fill="#23419B"/>
</svg>
