<svg width="22" height="22" viewBox="0 0 22 22" fill="none" xmlns="http://www.w3.org/2000/svg">
<path d="M19.9285 9.86014C19.5128 6.57077 17.3216 3.83471 14.3455 2.64231C15.3944 4.6673 16 7.67236 16 11C16 11.1521 15.9987 11.3035 15.9962 11.4541C17.9737 11.0157 19.458 10.3883 19.9285 9.86014ZM19.9212 12.1964C18.861 12.7479 17.4647 13.209 15.8792 13.5269C15.6539 15.8289 15.1208 17.861 14.3455 19.3577C17.3046 18.1721 19.4876 15.4606 19.9212 12.1964ZM2.10296 12.3658C2.58837 15.5542 4.74677 18.1927 7.65455 19.3577C6.88867 17.8792 6.35916 15.8783 6.12914 13.6108C4.52334 13.3317 3.14644 12.9093 2.10296 12.3658ZM2.06565 9.9074C2.35719 10.2805 3.16782 10.758 4.40826 11.1475C4.89668 11.3009 5.4316 11.4357 6.00555 11.5502C6.00186 11.3679 6 11.1844 6 11C6 7.67236 6.60556 4.6673 7.65455 2.64231C4.66412 3.84042 2.46628 6.59699 2.06565 9.9074ZM13.9863 11.8045C13.9953 11.5397 14 11.2713 14 11C14 5.98399 12.4064 2 11 2C9.5936 2 8 5.98399 8 11C8 11.287 8.00522 11.5706 8.01531 11.8502C8.95341 11.9483 9.95577 12 11 12C12.028 12 13.0367 11.9275 13.9863 11.8045ZM13.8253 13.8441C12.9124 13.9454 11.9633 14 11 14C10.0209 14 9.07601 13.9582 8.17891 13.8773C8.63347 17.4574 9.87647 20 11 20C12.127 20 13.3742 17.4417 13.8253 13.8441ZM11 0C17.0751 0 22 4.92487 22 11C22 17.0751 17.0751 22 11 22C4.92487 22 0 17.0751 0 11C0 4.92487 4.92487 0 11 0Z" fill="#0073BE"/>
</svg>
