<svg width="203" height="64" fill="none" xmlns="http://www.w3.org/2000/svg"><path d="M107.623 47.334c.078 0 .097-.097.136-.175.427-1.105.64-1.687.64-1.726 0-.117-.058-.155-.194-.155H99.34c-.194 0-.31.077-.35.232-.445 1.106-.659 1.669-.659 1.707 0 .059.02.097.04.117h9.252z" fill="#23419B"/><path d="M111.29 40.215H98.04c-2.075 0-4.384 1.59-5.14 3.53l-1.979 5.14c-.756 1.94.33 3.531 2.425 3.531h13.23c.194 0 .33-.077.388-.232l.64-1.63c0-.039 0-.058.019-.078 0-.116-.077-.155-.213-.155H97.226c-.718 0-1.067-.349-1.067-1.028 0-.485.194-1.222.601-2.23l.446-1.203c1.009-2.871 1.785-3.512 2.386-3.512h10.902c.214 0 .311-.077.369-.213 0 0 .601-1.552.621-1.649.038-.077.019-.116.019-.136-.039-.097-.097-.135-.213-.135zm41.978-.001h-17.187c-.194 0-.311.078-.369.233-.427 1.125-.64 1.688-.64 1.707 0 .116.078.155.213.155h5.956c-.66 1.707-3.822 9.932-3.822 9.932 0 .097.058.155.194.155h4.617c.175 0 .291-.077.349-.232l3.822-9.855h6.072c.194 0 .31-.077.368-.213.427-1.106.64-1.688.64-1.727 0-.097-.077-.155-.213-.155zm-20.892 0h-14.258c-1.183 0-2.949.543-3.725 2.56l-.31.796-.272.737c-.64 1.65.156 2.988 1.766 3.026h8.108c.796.02 1.009.427.776 1.029l-.33.834c-.329.834-.931 1.086-2.463 1.086h-9.874c-.213 0-.31.078-.369.213l-.659 1.688c-.058.136.058.233.194.233h13.967c.97 0 1.998-.291 2.91-1.048.388-.33.834-.718 1.164-1.571.097-.233.465-1.222.484-1.26.233-.622.427-1.145.291-1.708a2.102 2.102 0 0 0-.523-.95c-.369-.37-1.009-.64-1.61-.64h-8.225c-.679 0-.699-.447-.524-.932.194-.485.388-1.028.388-1.028.213-.543.368-.95 1.086-.95h11.174c.213 0 .31-.078.368-.214l.64-1.649c.02-.02.02-.038.02-.077 0-.117-.058-.175-.194-.175zm29.427 0h-4.83c-.174 0-.291.078-.349.233-.756 1.94-4.5 11.697-4.539 11.794-.039.097.058.155.194.155h4.811c.194 0 .31-.077.368-.232.252-.64 4.248-11.019 4.52-11.756l.019-.02c.02-.038 0-.057 0-.077-.019-.058-.097-.097-.194-.097zm29.777 0h-4.694c-.155 0-.213.097-.272.252-.194.524-1.222 3.22-2.269 5.936l-.291.757c-1.028 2.657-2.561 3.104-5.199 3.123a7.45 7.45 0 0 1-2.134 2.037c.291.058.621.097.931.097h3.123c5.723 0 7.391-2.677 8.206-4.811 0-.02 2.735-7.12 2.774-7.197.058-.136-.039-.194-.175-.194zm-10.397 0h-4.695c-.155 0-.213.097-.271.253a865.48 865.48 0 0 1-2.27 5.936l-.291.756c-1.028 2.677-1.979 3.143-4.869 3.162-.698 0-1.048-.35-1.048-1.028 0-.388.194-.95.466-1.668a1202.48 1202.48 0 0 0 2.774-7.236c0-.116-.058-.155-.194-.155h-4.636c-.175 0-.291.077-.349.233-.408 1.066-1.766 4.558-2.891 7.468 0 .02 0 .02-.019.039l-.369.93c-.737 1.94.33 3.512 2.406 3.512h5.47c5.723 0 7.391-2.677 8.206-4.81 0-.02 2.735-7.12 2.774-7.198.019-.135-.078-.194-.194-.194zM102.657 18.76c.078 0 .097-.096.136-.174.427-1.106.64-1.668.64-1.707 0-.097-.058-.155-.174-.155h-8.594c-.194 0-.31.078-.35.233-.445 1.086-.659 1.668-.659 1.687 0 .059.02.097.039.117h8.962z" fill="#23419B"/><path d="M110.513 16.222l.408-1.028c.737-1.92-.33-3.492-2.406-3.492H95.557c-.194 0-.33.078-.388.233l-.62 1.63c0 .038 0 .058-.02.077 0 .097.078.155.213.155h9.874c.699 0 1.067.35 1.067 1.028 0 .485-.194 1.222-.601 2.231l-.446 1.203c-.99 2.851-1.766 3.492-2.386 3.492H91.677c-.213 0-.31.077-.368.213l-.62 1.649c-.02.02-.02.039-.02.078 0 .097.058.155.194.155h12.977c2.057 0 4.365-1.572 5.102-3.492l.602-1.571c0-.02 0-.02.019-.04.058-.135.136-.348.233-.6l.62-1.61a.846.846 0 0 1 .097-.311zm21.552-4.542h-12.997c-2.056 0-4.364 1.571-5.102 3.491l-1.978 5.102c-.737 1.92.33 3.492 2.405 3.492h12.997c.194 0 .33-.078.388-.233l.621-1.63c0-.038 0-.058.019-.077 0-.097-.077-.155-.213-.155h-9.932c-.698 0-1.067-.35-1.067-1.028 0-.485.194-1.222.601-2.231l.447-1.203c.989-2.851 1.765-3.491 2.386-3.491h10.63c.213 0 .31-.078.369-.214l.62-1.649c.02-.02.02-.038.02-.077-.02-.04-.097-.097-.214-.097zm19.651 0h-16.411c-.194 0-.31.077-.368.232l-.641 1.688c0 .097.078.155.214.155h5.587c-.66 1.707-3.803 9.855-3.803 9.874 0 .097.059.155.194.155h4.578c.175 0 .291-.077.35-.232l3.782-9.797h5.704c.174 0 .31-.077.368-.213.427-1.106.64-1.668.64-1.707 0-.097-.077-.155-.194-.155zm19.593 0h-5.335c-.078 0-.155.02-.194.058-.058.039-9.156 7.915-9.156 7.915s2.774-7.178 2.871-7.41c.097-.272.155-.408.155-.408 0-.097-.058-.155-.175-.155h-4.539c-.174 0-.291.077-.349.232-.737 1.92-4.52 11.698-4.52 11.717 0 .097.058.155.194.155h5.005c.194 0 .291-.058.504-.232l9.156-7.934-3.045 8.011c0 .097.058.155.174.155h4.579c.174 0 .31-.077.368-.232.252-.66 4.501-11.698 4.501-11.717 0-.097-.059-.155-.194-.155zm19.67 4.19c.562-.679.834-1.396.834-2.153 0-.698-.252-1.222-.776-1.61-.446-.29-.989-.446-1.649-.446h-14.471c-.214 0-.33.078-.369.233-.97 2.502-4.52 11.697-4.52 11.716 0 .097.059.156.194.156h4.54s.155 0 .252-.078.136-.194.136-.194l.698-1.804 3.045-7.954h7.1c.66 0 .834.505.602 1.106l-.078.175c-.233.62-.97 1.106-1.629 1.106h-4.966c-.194 0-.33.077-.388.232l-.621 1.61c0 .02 0 .04-.02.078 0 .097.078.136.214.136h6.013c.66 0 1.009.504.757 1.106l-.485 1.26c-.233.621-.892 1.106-2.425 1.106h-5.218c-.194 0-.33.078-.388.233l-.64 1.649c0 .02 0 .039-.02.077 0 .117.078.136.214.136h8.923c1.203 0 2.386-.31 3.298-1.067.892-.717 1.125-1.396 1.61-2.813.194-.543.272-1.125.136-1.707a2.094 2.094 0 0 0-.524-.95 2.229 2.229 0 0 0-.485-.388 4.252 4.252 0 0 0 1.106-.95z" fill="#23419B"/><path d="M195.887 31.254H86.537v1.513h109.35v-1.513zM22.619 18.722c2.347-5.47 8.71-16.683 22.017-18.021 0 0-19.476-1.494-29.04 18.002 2.484.523 4.85.465 7.023.019zM65.49 45.355c-2.347 5.47-8.71 16.683-22.018 18.022 0 0 19.477 1.493 29.04-18.002a17.464 17.464 0 0 0-7.022-.02zm10.087-13.482c.02 2.639-.291 5.84-1.668 10.068-5.936-3.142-12.144-5.509-18.138-6.964-2.134-.523-8.09-1.823-12.88-1.668-5.782.175-10.398 1.94-12.125 2.716-8.593 3.84-14.122 11.348-14.122 11.348s-4.151-7.061-4.112-15.131c-.02-2.638.543-7.449 1.648-10.068 10.728 5.8 21.63 8.264 29.06 8.633 6.304.31 12.046-1.766 14.102-2.697C65.2 24.6 70.456 18.081 71.464 16.762c.815 1.416 4.152 7.837 4.113 15.111z" fill="#5C2D91"/><path d="M54.006 40.138C43.453 41.884 37.73 48.42 35.538 50.67c0 0-4.54 4.578-6.654 6.848-2.114 2.27-5.8 5.625-10.436 6.246 7.449.31 17.013 1.32 23.86-5.645 1.92-1.96 5.121-5.334 6.964-7.177 3.53-3.57 11.581-10.243 23.725-6.654 0 0 .31-.718.465-1.145-.02.02-8.341-4.85-19.456-3.006zM34.083 23.862C44.636 22.116 50.36 15.58 52.551 13.33c0 0 4.539-4.578 6.653-6.848 2.115-2.27 5.8-5.625 10.437-6.246-7.45-.31-17.013-1.32-23.86 5.645-1.92 1.96-5.122 5.334-6.965 7.177-3.53 3.57-11.639 10.223-23.763 6.635 0 0-.31.756-.465 1.144.038 0 8.4 4.87 19.495 3.026z" fill="#0073BE"/><path d="M23.53 44.079c-3.24 3.2-11.775 12.027-11.775 12.027S5.238 63.729 0 63.729c6.46.466 17.129.737 22.522-4.578C27.915 53.836 34.413 47.3 34.413 47.3s8.167-9.156 23.181-9.505c-4.48-1.358-21.648-5.975-34.064 6.285zM65.588 4.855a1958.19 1958.19 0 0 0-11.892 11.852s-8.166 9.156-23.181 9.505c4.481 1.378 21.649 5.995 34.083-6.285C67.837 16.727 76.372 7.9 76.372 7.9S82.89.277 88.128.277C81.629-.19 70.979-.461 65.587 4.855zm131.676 10.589h-.543V12.61h-.97v-.465h2.483v.465h-.97v2.832zm2.91 0l-.951-2.755h-.019c.019.407.039.795.039 1.144v1.61h-.485v-3.297h.756l.912 2.619h.02l.95-2.62h.757v3.299h-.524v-1.63c0-.155 0-.369.019-.64 0-.272.02-.427.02-.485h-.02l-.989 2.755h-.485z" fill="#23419B"/></svg>