<svg width="22" height="22" fill="none" xmlns="http://www.w3.org/2000/svg"><path d="M19.873 17.68l-2.217 2.217-2.838-.79-.811.334L12.55 22H9.415l-1.449-2.566-.81-.34-2.838.78-2.216-2.216.79-2.838-.334-.811L0 12.55V9.415l2.568-1.449.34-.81-.781-2.838 2.215-2.215 2.838.791.81-.334L9.446 0h3.136l1.449 2.568.81.34 2.837-.781 2.22 2.215-.791 2.839.334.81L22 9.447v3.136l-2.567 1.448-.34.813.78 2.837zm-2.892-2.972l.872-2.082L20 11.414v-.804l-2.147-1.22-.859-2.083.662-2.375-.569-.568-2.383.655-2.08-.872L11.413 2h-.804L9.39 4.147l-2.083.859-2.376-.663-.566.566.655 2.383-.872 2.08L2 10.582v.805l2.145 1.222.859 2.083-.662 2.376.567.567 2.383-.655 2.08.872 1.21 2.146h.805l1.222-2.145 2.083-.859 2.376.662.568-.568-.655-2.381zM11 15a4 4 0 1 1 0-8 4 4 0 0 1 0 8zm0-2a2 2 0 1 0 0-4 2 2 0 0 0 0 4z" fill="#fff"/></svg>