<svg width="20" height="23" fill="none" xmlns="http://www.w3.org/2000/svg"><path d="M8.135 1.276a2 2 0 0 1 3.73.002C14.762 2.123 17 4.94 17 9c0 2.625.532 4.102 1.515 5.177.244.266 1.101 1.037 1.197 1.135l.288.292v3.41h-6.126a3.941 3.941 0 0 1-1.786 2.409 4.008 4.008 0 0 1-4.176 0c-1.042-.636-1.618-1.347-1.824-2.409H0v-3.41l.288-.292c.104-.105.956-.87 1.198-1.133C2.469 13.11 3 11.634 3 9c0-4.07 2.235-6.882 5.135-7.724zm.044 17.738c.14.263.382.461.775.701.642.392 1.45.392 2.092 0 .297-.181.53-.421.69-.7H8.18zM18 16.452c-.298-.275-.75-.695-.96-.925C15.706 14.07 15 12.107 15 9c0-3.769-2.34-5.988-5-5.988C7.333 3.012 5 5.22 5 9c0 3.118-.706 5.08-2.042 6.533-.21.228-.662.648-.958.92v.561h16v-.562z" fill="#FFBA08"/></svg>