<svg width="23" height="23" viewBox="0 0 23 23" fill="none" xmlns="http://www.w3.org/2000/svg">
<path d="M16.9706 16.9706C13.8464 20.0948 8.78105 20.0948 5.65685 16.9706C2.53266 13.8464 2.53266 8.78106 5.65685 5.65687C8.78105 2.53267 13.8464 2.53267 16.9706 5.65687C20.0948 8.78106 20.0948 13.8464 16.9706 16.9706ZM15.5563 15.5564C17.8995 13.2132 17.8995 9.41423 15.5563 7.07108C13.2132 4.72793 9.41421 4.72793 7.07107 7.07108C4.72792 9.41423 4.72792 13.2132 7.07107 15.5564C9.41421 17.8995 13.2132 17.8995 15.5563 15.5564ZM11.3137 9.89951L13.435 7.77819L14.8492 9.1924L12.7279 11.3137L14.8492 13.435L13.435 14.8493L11.3137 12.7279L9.19239 14.8493L7.77817 13.435L9.89949 11.3137L7.77817 9.1924L9.19239 7.77819L11.3137 9.89951Z" fill="#E63946"/>
</svg>
