<svg width="22" height="22" viewBox="0 0 22 22" fill="none" xmlns="http://www.w3.org/2000/svg">
<path d="M10.482 9.06774C10.6472 9.02356 10.8208 9 11 9C12.1046 9 13 9.89543 13 11C13 12.1046 12.1046 13 11 13C9.89543 13 9 12.1046 9 11C9 10.8208 9.02356 10.6472 9.06774 10.482L5.29289 6.70711L6.70711 5.29289L10.482 9.06774ZM12 2.05493V6H10V0H11C17.0751 0 22 4.92487 22 11C22 17.0751 17.0751 22 11 22C4.92487 22 0 17.0751 0 11C0 8.03658 1.17864 5.25738 3.23642 3.20726L4.648 4.6241C2.96316 6.30267 2 8.57377 2 11C2 15.9706 6.02944 20 11 20C15.9706 20 20 15.9706 20 11C20 6.36745 16.5 2.55237 12 2.05493Z" fill="#0073BE"/>
</svg>
