<svg width="128" height="128" viewBox="0 0 128 128" fill="none" xmlns="http://www.w3.org/2000/svg">
<circle cx="64" cy="64" r="64" fill="#02BE96" fill-opacity="0.2"/>
<circle cx="64" cy="64" r="63.5" stroke="#02C39A" stroke-opacity="0.2"/>
<circle cx="64.0033" cy="64.0004" r="45.7143" fill="#02BE96"/>
<path d="M61.7156 65.3387L71.5279 55.5264L74.7604 58.7589L61.7156 71.8037L53.2422 63.3303L56.4747 60.0978L61.7156 65.3387Z" fill="white"/>
<path d="M82.2874 70.8569V45.714H45.716V82.2854H70.8588V75.4283C70.8588 72.9036 72.9055 70.8569 75.4302 70.8569H82.2874ZM81.3406 75.4283H75.4302V81.3387L81.3406 75.4283ZM45.716 86.8569C43.1912 86.8569 41.1445 84.8102 41.1445 82.2854V45.714C41.1445 43.1893 43.1912 41.1426 45.716 41.1426H82.2874C84.8121 41.1426 86.8588 43.1893 86.8588 45.714V76.3751L76.377 86.8569H45.716Z" fill="white"/>
</svg>
