<svg width="16" height="12" viewBox="0 0 16 12" fill="none" xmlns="http://www.w3.org/2000/svg">
<path d="M7.99914 0C10.2958 0 12.1936 1.08475 13.6967 2.85215C14.5744 3.88415 15.1399 4.91103 15.4273 5.62789L15.5764 5.99975L15.4275 6.37168C15.1405 7.08865 14.5753 8.11563 13.6978 9.14773C12.1951 10.9152 10.297 12 7.99914 12C5.70132 12 3.80315 10.9152 2.30046 9.14773C1.42299 8.11563 0.857833 7.08865 0.570784 6.37168L0.421875 5.99975L0.570957 5.62789C0.858348 4.91103 1.4239 3.88415 2.30157 2.85215C3.80466 1.08475 5.70248 0 7.99914 0ZM13.2398 5.70117C12.9476 5.17075 12.5915 4.63975 12.1732 4.14785C11.0186 2.79025 9.63603 2 7.99914 2C6.36226 2 4.97968 2.79025 3.82511 4.14785C3.40677 4.63975 3.05066 5.17075 2.75853 5.70117C2.69816 5.81079 2.64542 5.91104 2.6003 6.00022C2.64536 6.08936 2.69802 6.18957 2.75832 6.29913C3.05018 6.82949 3.40604 7.36042 3.8242 7.85227C4.97834 9.20978 6.36107 10 7.99914 10C9.63722 10 11.02 9.20978 12.1741 7.85227C12.5922 7.36042 12.9481 6.82949 13.24 6.29913C13.3003 6.18957 13.3529 6.08936 13.398 6.00022C13.3529 5.91104 13.3001 5.81079 13.2398 5.70117ZM7.99914 9C6.34229 9 4.99914 7.65685 4.99914 6C4.99914 4.34315 6.34229 3 7.99914 3C9.656 3 10.9991 4.34315 10.9991 6C10.9991 7.65685 9.656 9 7.99914 9ZM7.99914 7C8.55143 7 8.99914 6.55228 8.99914 6C8.99914 5.44772 8.55143 5 7.99914 5C7.44686 5 6.99914 5.44772 6.99914 6C6.99914 6.55228 7.44686 7 7.99914 7Z" fill="#0073BE"/>
</svg>
