<svg width="16" height="22" viewBox="0 0 16 22" fill="none" xmlns="http://www.w3.org/2000/svg">
<path d="M14 6.00049V2.00049H2V6.00049H14ZM14 8.00049H2V20.0005H14V8.00049ZM10 14.0005V13.0005H12V14.0005V18.0005H10V14.0005ZM2 0.000488281H14C15.1046 0.000488281 16 0.895919 16 2.00049V20.0005C16 21.1051 15.1046 22.0005 14 22.0005H2C0.89543 22.0005 0 21.1051 0 20.0005V2.00049C0 0.895919 0.89543 0.000488281 2 0.000488281ZM6 18.0005H4V16.0005H6V18.0005ZM9 18.0005H7V16.0005H9V18.0005ZM6 15.0005H4V13.0005H6V15.0005ZM9 15.0005H7V13.0005H9V15.0005ZM6 12.0005H4V10.0005H6V12.0005ZM9 12.0005H7V10.0005H9V12.0005ZM12 12.0005H10V10.0005H12V12.0005Z" fill="#02C39A"/>
</svg>
