<svg width="20" height="20" viewBox="0 0 20 20" fill="none" xmlns="http://www.w3.org/2000/svg">
<path d="M12.8024 4.44527L6.6961 10.5496C6.29095 10.9079 6.04031 11.4092 6 11.8678V14.0029L8.06398 14.0048C8.59821 13.967 9.09549 13.7184 9.49479 13.2616L15.5567 7.19972L12.8024 4.44527ZM14.2169 3.03128L16.9709 5.78551L17.8648 4.89162C17.9514 4.80502 18.0001 4.68756 18.0001 4.56508C18.0001 4.4426 17.9514 4.32514 17.8648 4.23854L15.7611 2.13486C15.6755 2.04855 15.5589 2 15.4373 2C15.3158 2 15.1992 2.04855 15.1136 2.13486L14.2169 3.03128ZM20.0001 11V18C20.0001 19.1046 19.1046 20 18 20H2.00001C0.895433 20 0 19.1046 0 18V2C0 0.89543 0.895433 0 2.00001 0H9.00002V2H2.00001V18H18V11H20.0001ZM15.4373 0C16.0921 0 16.7197 0.26142 17.1781 0.723423L19.279 2.82432C19.7407 3.286 20.0001 3.91217 20.0001 4.56508C20.0001 5.21799 19.7407 5.84416 19.279 6.30584L10.9575 14.6238C10.259 15.4295 9.2689 15.9245 8.1346 16.0023H4V15.0023L4.00325 11.7873C4.08844 10.7328 4.57867 9.75233 5.3265 9.09342L13.6954 0.724628C14.1564 0.26083 14.7834 0 15.4373 0Z" fill="#0073BE"/>
</svg>
