<svg width="16" height="20" viewBox="0 0 16 20" fill="none" xmlns="http://www.w3.org/2000/svg">
<path d="M3 8V5C3 2.23858 5.23858 0 8 0C10.7614 0 13 2.23858 13 5V8H14C15.0684 8 16 8.77637 16 9.83333V18.1667C16 19.2236 15.0684 20 14 20H2C0.931649 20 0 19.2236 0 18.1667V9.83333C0 8.77637 0.931649 8 2 8H3ZM5 8H11V5C11 3.34315 9.65685 2 8 2C6.34315 2 5 3.34315 5 5V8ZM2 10V18H14V10H2ZM8 15C7.44772 15 7 14.5523 7 14C7 13.4477 7.44772 13 8 13C8.55228 13 9 13.4477 9 14C9 14.5523 8.55228 15 8 15Z" fill="#373F51" fill-opacity="0.4"/>
</svg>
