<svg width="20" height="23" viewBox="0 0 20 23" fill="none" xmlns="http://www.w3.org/2000/svg">
<path d="M11.8654 1.27771C14.7616 2.1235 17 4.94082 17 9C17 11.6246 17.5317 13.1024 18.5154 14.1769C18.7592 14.4433 19.616 15.2145 19.712 15.3119L20 15.604V19.0141H13.8743C13.6241 19.9989 13.0075 20.8614 12.0878 21.4226C10.8059 22.2049 9.19414 22.2049 7.9122 21.4226C6.87009 20.7867 6.29384 20.0761 6.08798 19.0141H0V15.604L0.287965 15.3119C0.392051 15.2071 1.24384 14.4428 1.48596 14.1793C2.46898 13.1098 3 11.6339 3 9C3 4.92919 5.23535 2.11803 8.13531 1.27592C8.24021 1.00525 8.40573 0.753635 8.63052 0.54243C9.40027 -0.18081 10.5997 -0.18081 11.3695 0.54243C11.5948 0.7541 11.7605 1.00636 11.8654 1.27771ZM11.7367 19.0141H8.17862C8.3199 19.2769 8.56071 19.4754 8.95402 19.7154C9.59627 20.1073 10.4037 20.1073 11.046 19.7154C11.3434 19.5339 11.5758 19.2937 11.7367 19.0141ZM18 16.4519C17.7016 16.1774 17.2506 15.7573 17.0402 15.5274C15.706 14.07 15 12.1078 15 9C15 5.23129 12.6597 3.01238 10 3.01238C7.33277 3.01238 5 5.21989 5 9C5 12.1178 4.29422 14.0794 2.95849 15.5327C2.74843 15.7613 2.29607 16.1811 2 16.4524V17.0141H18V16.4519ZM10.0003 14.9983C9.44786 14.9983 9 14.5506 9 13.9983C9 13.4461 9.44786 12.9983 10.0003 12.9983C10.5528 12.9983 11.0007 13.4461 11.0007 13.9983C11.0007 14.5506 10.5528 14.9983 10.0003 14.9983ZM9.00295 5.99835H11.0036V11.9983H9.00295V5.99835Z" fill="#FFBA08"/>
</svg>