<svg width="16" height="12" viewBox="0 0 16 12" fill="none" xmlns="http://www.w3.org/2000/svg">
<path d="M8 0C10.2967 0 12.1945 1.08475 13.6976 2.85215C14.5752 3.88415 15.1408 4.91103 15.4282 5.62789L15.5773 5.99975L15.4284 6.37168C15.1413 7.08865 14.5762 8.11563 13.6987 9.14773C12.196 10.9152 10.2978 12 8 12C5.70217 12 3.804 10.9152 2.30131 9.14773C1.42384 8.11563 0.858688 7.08865 0.571639 6.37168L0.422729 5.99975L0.571811 5.62789C0.859203 4.91103 1.42476 3.88415 2.30242 2.85215C3.80551 1.08475 5.70334 0 8 0ZM13.2406 5.70117C12.9485 5.17075 12.5924 4.63975 12.174 4.14785C11.0195 2.79025 9.63688 2 8 2C6.36311 2 4.98053 2.79025 3.82596 4.14785C3.40762 4.63975 3.05151 5.17075 2.75938 5.70117C2.69901 5.81079 2.64628 5.91104 2.60115 6.00022C2.64622 6.08936 2.69888 6.18957 2.75917 6.29913C3.05103 6.82949 3.4069 7.36042 3.82506 7.85227C4.97919 9.20978 6.36192 10 8 10C9.63807 10 11.0208 9.20978 12.1749 7.85227C12.5931 7.36042 12.949 6.82949 13.2408 6.29913C13.3011 6.18957 13.3538 6.08936 13.3988 6.00022C13.3537 5.91104 13.301 5.81079 13.2406 5.70117ZM8 9C6.34314 9 5 7.65685 5 6C5 4.34315 6.34314 3 8 3C9.65685 3 11 4.34315 11 6C11 7.65685 9.65685 9 8 9ZM8 7C8.55228 7 9 6.55228 9 6C9 5.44772 8.55228 5 8 5C7.44771 5 7 5.44772 7 6C7 6.55228 7.44771 7 8 7Z" fill="#B4B8C5"/>
</svg>
