<svg width="20" height="20" viewBox="0 0 20 20" fill="none" xmlns="http://www.w3.org/2000/svg">
<path d="M16 3.99998H18C19.1046 3.99998 20 4.89541 20 5.99998V18C20 19.1046 19.1046 20 18 20H2C0.89543 20 0 19.1046 0 18H0.0267036C0.00895182 17.8924 0 17.7835 0 17.6743V5.75428C0 4.86132 0.591955 4.07655 1.45056 3.83123L13.4506 0.402662C14.5126 0.0992137 15.6196 0.714198 15.923 1.77627C15.9741 1.95495 16 2.13988 16 2.32571V3.99998ZM16 5.99998V14.2457C16 15.1386 15.408 15.9234 14.5494 16.1687L8.14005 18H18V5.99998H16ZM2 5.75428V17.6743L14 14.2457V2.32571L2 5.75428ZM16 9.99998V7.99998H18V9.99998H16ZM11 8.99998C10.4477 8.99998 10 8.55227 10 7.99998C10 7.4477 10.4477 6.99998 11 6.99998C11.5523 6.99998 12 7.4477 12 7.99998C12 8.55227 11.5523 8.99998 11 8.99998Z" fill="#F59138"/>
</svg>
